<svg width="125" height="112" viewBox="0 0 125 112" fill="none" xmlns="http://www.w3.org/2000/svg">
<path d="M62.5 69.4999C62.5 49.4999 45.5 35.4999 18 37.9999C18 48.4999 21.9606 57.3777 28 62.9999M62.5 69.4999C52.5 88.9999 28 99.4999 8 80.4999C16 72.4999 23.3632 66.4999 28 62.9999M62.5 69.4999C51 72.4999 37.8028 72.1255 28 62.9999M62.5 69.4999C62.5 49.4999 79.5 35.4999 107 37.9999C107 48.4999 103.039 57.3777 97 62.9999M62.5 69.4999C72.5 88.9999 97 99.4999 117 80.4999C109 72.4999 101.637 66.4999 97 62.9999M62.5 69.4999C74 72.4999 87.1972 72.1255 97 62.9999M35 107H90M75 17.5C75 24.4036 69.4035 30 62.5 30C55.5964 30 50 24.4036 50 17.5C50 10.5964 55.5964 5 62.5 5C69.4035 5 75 10.5964 75 17.5Z" stroke="black" stroke-width="10"/>
</svg>
